<?xml version="1.0" encoding="iso-8859-1"?>
<!-- Generator: Adobe Illustrator 19.0.0, SVG Export Plug-In . SVG Version: 6.00 Build 0)  -->
<svg version="1.1" id="Layer_1" xmlns="http://www.w3.org/2000/svg" xmlns:xlink="http://www.w3.org/1999/xlink" x="0px" y="0px"
	 viewBox="0 0 512 512" style="enable-background:new 0 0 512 512;" xml:space="preserve">
<path style="fill:#00E7F0;" d="M293.305,18.485C263.786,6.574,231.562,0,197.827,0C152.83,0,108.561,11.849,69.804,34.267
	c-7.191,4.16-11.619,11.837-11.619,20.145s4.428,15.985,11.619,20.145c64.605,37.373,104.738,106.898,104.738,181.447
	c0,74.543-40.133,144.066-104.738,181.439c-7.191,4.16-11.619,11.838-11.619,20.145s4.428,15.985,11.619,20.145
	C108.563,500.151,152.832,512,197.827,512c33.735,0,65.958-6.574,95.477-18.485c93.997-37.925,160.51-130.091,160.51-237.512
	C453.815,148.579,387.302,56.41,293.305,18.485z"/>
<path style="fill:#00D7DF;" d="M58.185,54.412c0,8.307,4.428,15.985,11.619,20.145c64.605,37.373,104.738,106.898,104.738,181.447
	c0,74.543-40.133,144.066-104.738,181.439c-7.191,4.16-11.619,11.838-11.619,20.145s4.428,15.985,11.619,20.145
	C108.563,500.151,152.832,512,197.827,512c33.735,0,65.958-6.574,95.477-18.485V18.485C263.786,6.574,231.562,0,197.827,0
	C152.83,0,108.561,11.849,69.804,34.267C62.613,38.426,58.185,46.103,58.185,54.412z"/>
<g>
</g>
<g>
</g>
<g>
</g>
<g>
</g>
<g>
</g>
<g>
</g>
<g>
</g>
<g>
</g>
<g>
</g>
<g>
</g>
<g>
</g>
<g>
</g>
<g>
</g>
<g>
</g>
<g>
</g>
</svg>
