<?xml version="1.0" encoding="iso-8859-1"?>
<!-- Generator: Adobe Illustrator 19.0.0, SVG Export Plug-In . SVG Version: 6.00 Build 0)  -->
<svg version="1.1" id="Layer_1" xmlns="http://www.w3.org/2000/svg" xmlns:xlink="http://www.w3.org/1999/xlink" x="0px" y="0px"
	 viewBox="0 0 512 512" style="enable-background:new 0 0 512 512;" xml:space="preserve">
<path style="fill:#C4D9FD;" d="M272.431,6.816C268.072,2.458,262.164,0.008,256,0.002c-0.008,0-0.017-0.002-0.026-0.002
	c-6.173,0-12.093,2.453-16.455,6.817c-6.613,6.614-161.955,163.854-161.955,326.783C77.563,431.97,157.598,512,255.975,512
	c0.008,0,0.017,0,0.025,0c98.392-0.014,178.437-80.038,178.437-178.399C434.437,170.668,279.046,13.428,272.431,6.816z"/>
<path style="fill:#A7C7FC;" d="M255.975,512c0.008,0,0.017,0,0.025,0V0.002c-0.008,0-0.017-0.002-0.026-0.002
	c-6.173,0.002-12.093,2.453-16.455,6.817c-6.613,6.614-161.955,163.854-161.955,326.783C77.563,431.97,157.598,512,255.975,512z"/>
<g>
</g>
<g>
</g>
<g>
</g>
<g>
</g>
<g>
</g>
<g>
</g>
<g>
</g>
<g>
</g>
<g>
</g>
<g>
</g>
<g>
</g>
<g>
</g>
<g>
</g>
<g>
</g>
<g>
</g>
</svg>
