<?xml version="1.0" encoding="iso-8859-1"?>
<!-- Generator: Adobe Illustrator 19.0.0, SVG Export Plug-In . SVG Version: 6.00 Build 0)  -->
<svg version="1.1" id="Layer_1" xmlns="http://www.w3.org/2000/svg" xmlns:xlink="http://www.w3.org/1999/xlink" x="0px" y="0px"
	 viewBox="0 0 512 512" style="enable-background:new 0 0 512 512;" xml:space="preserve">
<path style="fill:#EE8700;" d="M118.91,154.861c42.695,0,77.431-34.735,77.431-77.431C196.341,34.737,161.605,0,118.91,0
	S41.48,34.737,41.48,77.431C41.48,120.126,76.215,154.861,118.91,154.861z M118.91,46.458c17.078,0,30.972,13.896,30.972,30.972
	c0,17.078-13.894,30.972-30.972,30.972S87.938,94.509,87.938,77.431C87.938,60.354,101.832,46.458,118.91,46.458z"/>
<path style="fill:#424EDE;" d="M231.977,227.444v130.662v130.664c0,12.829,10.4,23.229,23.229,23.229
	c12.829,0,23.229-10.4,23.229-23.229V381.336h72.814c12.829,0,23.229-10.4,23.229-23.229c0-12.829-10.4-23.229-23.229-23.229
	h-72.814v-84.204h168.856c12.829,0,23.229-10.4,23.229-23.229c0-12.829-10.4-23.229-23.229-23.229H255.206
	C242.378,204.215,231.977,214.616,231.977,227.444z"/>
<g>
</g>
<g>
</g>
<g>
</g>
<g>
</g>
<g>
</g>
<g>
</g>
<g>
</g>
<g>
</g>
<g>
</g>
<g>
</g>
<g>
</g>
<g>
</g>
<g>
</g>
<g>
</g>
<g>
</g>
</svg>
