<?xml version="1.0" encoding="iso-8859-1"?>
<!-- Generator: Adobe Illustrator 19.0.0, SVG Export Plug-In . SVG Version: 6.00 Build 0)  -->
<svg version="1.1" id="Layer_1" xmlns="http://www.w3.org/2000/svg" xmlns:xlink="http://www.w3.org/1999/xlink" x="0px" y="0px"
	 viewBox="0 0 512 512" style="enable-background:new 0 0 512 512;" xml:space="preserve">
<path style="fill:#E0E0E2;" d="M380.122,108.55h-2.586c-20.103-50.821-66.977-86.462-121.534-92.197
	c-5.112-0.538-10.285-0.833-15.515-0.833c-79.017,0-143.708,62.499-147.241,140.658C40.606,163.661,0.003,209.027,0.003,263.7
	c0,59.885,48.719,108.605,108.605,108.605h147.393h124.12c72.717,0,131.878-59.16,131.878-131.878S452.84,108.55,380.122,108.55z"/>
<path style="fill:#BDFDFF;" d="M505.186,458.639c4.329-4.329,6.811-10.318,6.811-16.446c0-6.144-2.482-12.133-6.811-16.461
	c-4.329-4.329-10.333-6.827-16.461-6.827c-6.128,0-12.117,2.498-16.446,6.827c-4.346,4.329-6.827,10.333-6.827,16.461
	c0,6.113,2.482,12.119,6.827,16.446c4.329,4.329,10.316,6.811,16.446,6.811C494.853,465.45,500.857,462.968,505.186,458.639z"/>
<path style="fill:#9BC9FF;" d="M23.273,465.466c6.128,0,12.133-2.498,16.461-6.827c4.329-4.329,6.811-10.333,6.811-16.461
	c0-6.113-2.482-12.117-6.811-16.446c-4.329-4.329-10.333-6.811-16.461-6.811s-12.117,2.482-16.446,6.811
	C2.481,430.06,0,436.065,0,442.178c0,6.128,2.482,12.133,6.827,16.461C11.14,462.968,17.144,465.466,23.273,465.466z"/>
<path style="fill:#BDFDFF;" d="M388.823,489.669c4.329-4.329,6.811-10.333,6.811-16.461c0-6.113-2.482-12.117-6.811-16.446
	c-4.329-4.329-10.333-6.827-16.461-6.827s-12.117,2.498-16.446,6.827c-4.346,4.329-6.827,10.333-6.827,16.446
	c0,6.128,2.482,12.133,6.827,16.461c4.329,4.329,10.316,6.811,16.446,6.811C378.49,496.48,384.494,493.998,388.823,489.669z"/>
<path style="fill:#9BC9FF;" d="M156.097,489.669c4.329-4.329,6.811-10.333,6.811-16.461c0-6.113-2.482-12.117-6.811-16.446
	s-10.333-6.811-16.461-6.811c-6.128,0-12.117,2.482-16.446,6.811c-4.346,4.329-6.827,10.333-6.827,16.446
	c0,6.128,2.482,12.133,6.827,16.461c4.329,4.329,10.316,6.811,16.446,6.811C145.764,496.48,151.768,493.998,156.097,489.669z"/>
<path style="fill:#BDFDFF;" d="M272.46,458.639c4.329-4.329,6.811-10.333,6.811-16.461c0-6.113-2.482-12.117-6.811-16.446
	c-4.329-4.329-10.333-6.811-16.461-6.811s-12.117,2.482-16.446,6.811c-4.346,4.329-6.827,10.333-6.827,16.446
	c0,6.128,2.482,12.133,6.827,16.461c4.329,4.329,10.316,6.827,16.446,6.827C262.127,465.466,268.131,462.968,272.46,458.639z"/>
<path style="fill:#C6C5CA;" d="M240.486,15.52c-79.017,0-143.708,62.499-147.241,140.658C40.606,163.661,0.003,209.027,0.003,263.7
	c0,59.885,48.719,108.605,108.605,108.605h147.393V16.353C250.889,15.814,245.717,15.52,240.486,15.52z"/>
<path style="fill:#9BC9FF;" d="M239.552,425.732c-4.346,4.329-6.827,10.333-6.827,16.446c0,6.128,2.482,12.133,6.827,16.461
	c4.329,4.329,10.316,6.827,16.446,6.827V418.92C249.87,418.92,243.881,421.403,239.552,425.732z"/>
<g>
</g>
<g>
</g>
<g>
</g>
<g>
</g>
<g>
</g>
<g>
</g>
<g>
</g>
<g>
</g>
<g>
</g>
<g>
</g>
<g>
</g>
<g>
</g>
<g>
</g>
<g>
</g>
<g>
</g>
</svg>
