<svg height="512pt" viewBox="0 -40 512 512" width="512pt" xmlns="http://www.w3.org/2000/svg"><path d="m376.5 321.332031h-241c-30.417969 0-55.164062 24.746094-55.164062 55.164063 0 30.421875 24.746093 55.167968 55.164062 55.167968h241c30.417969 0 55.167969-24.746093 55.167969-55.167968 0-30.417969-24.75-55.164063-55.167969-55.164063zm0 0" fill="#deecf1"/><path d="m416.667969 110.332031h40.167969c30.417968 0 55.164062-24.746093 55.164062-55.167969 0-30.417968-24.746094-55.164062-55.164062-55.164062h-40.167969c-30.421875 0-55.167969 24.746094-55.167969 55.164062 0 30.421876 24.746094 55.167969 55.167969 55.167969zm0 0" fill="#76e2f8"/><path d="m55.167969 110.332031h200.832031c30.417969 0 55.167969-24.746093 55.167969-55.167969 0-30.417968-24.75-55.164062-55.167969-55.164062h-200.832031c-30.421875 0-55.167969 24.746094-55.167969 55.164062 0 30.421876 24.746094 55.167969 55.167969 55.167969zm0 0" fill="#deecf1"/><path d="m150.5 215.832031c0-30.421875-24.746094-55.167969-55.164062-55.167969h-40.167969c-30.421875 0-55.167969 24.746094-55.167969 55.167969 0 30.417969 24.746094 55.164063 55.167969 55.164063h40.167969c30.417968 0 55.164062-24.746094 55.164062-55.164063zm0 0" fill="#deecf1"/><g fill="#76e2f8"><path d="m456.835938 160.664062h-200.835938c-30.417969 0-55.164062 24.746094-55.164062 55.167969 0 30.417969 24.746093 55.164063 55.164062 55.164063h200.835938c30.417968 0 55.164062-24.746094 55.164062-55.164063 0-30.421875-24.746094-55.167969-55.164062-55.167969zm0 0"/><path d="m376.5 431.664062c30.417969 0 55.167969-24.746093 55.167969-55.167968 0-30.417969-24.75-55.164063-55.167969-55.164063h-120.5v110.332031zm0 0"/></g></svg>