<?xml version="1.0" encoding="iso-8859-1"?>
<!-- Generator: Adobe Illustrator 19.0.0, SVG Export Plug-In . SVG Version: 6.00 Build 0)  -->
<svg version="1.1" id="Layer_1" xmlns="http://www.w3.org/2000/svg" xmlns:xlink="http://www.w3.org/1999/xlink" x="0px" y="0px"
	 viewBox="0 0 512 512" style="enable-background:new 0 0 512 512;" xml:space="preserve">
<path style="fill:#D0FCFF;" d="M442.197,74.558c7.191-4.158,11.618-11.837,11.618-20.145c0-8.307-4.426-15.985-11.618-20.143
	C403.439,11.849,359.17,0,314.172,0c-33.733,0-65.958,6.572-95.476,18.485v475.03C248.214,505.428,280.439,512,314.172,512
	c44.997,0,89.266-11.849,128.025-34.267c7.191-4.161,11.618-11.836,11.618-20.145c0-8.305-4.426-15.985-11.618-20.145
	c-64.607-37.373-104.74-106.896-104.74-181.445C337.458,181.454,377.591,111.931,442.197,74.558z"/>
<path style="fill:#BBFAFF;" d="M58.185,255.997c0,107.424,66.515,199.595,160.512,237.518V18.485
	C124.7,56.408,58.185,148.576,58.185,255.997z"/>
<path style="fill:#00E7F0;" d="M442.197,437.442c-64.607-37.373-104.74-106.896-104.74-181.445
	c0-74.543,40.133-144.066,104.74-181.439c7.191-4.158,11.618-11.837,11.618-20.145c0-8.307-4.428-15.985-11.618-20.143
	C403.439,11.849,359.17,0,314.172,0c-33.733,0-65.958,6.572-95.476,18.485C124.7,56.408,58.185,148.576,58.185,255.997
	c0,107.424,66.515,199.595,160.512,237.518C248.214,505.428,280.439,512,314.172,512c44.997,0,89.266-11.849,128.025-34.267
	c7.191-4.161,11.618-11.836,11.618-20.145C453.815,449.282,449.389,441.603,442.197,437.442z"/>
<path style="fill:#00D7DF;" d="M58.185,255.997c0,107.424,66.515,199.595,160.512,237.518V18.485
	C124.7,56.408,58.185,148.576,58.185,255.997z"/>
<g>
</g>
<g>
</g>
<g>
</g>
<g>
</g>
<g>
</g>
<g>
</g>
<g>
</g>
<g>
</g>
<g>
</g>
<g>
</g>
<g>
</g>
<g>
</g>
<g>
</g>
<g>
</g>
<g>
</g>
</svg>
