<?xml version="1.0" encoding="iso-8859-1"?>
<!-- Generator: Adobe Illustrator 19.0.0, SVG Export Plug-In . SVG Version: 6.00 Build 0)  -->
<svg version="1.1" id="Layer_1" xmlns="http://www.w3.org/2000/svg" xmlns:xlink="http://www.w3.org/1999/xlink" x="0px" y="0px"
	 viewBox="0 0 512 512" style="enable-background:new 0 0 512 512;" xml:space="preserve">
<path style="fill:#00E7F0;" d="M279.273,8.886C257.939,3.103,235.518,0,212.379,0C154.373,0,97.539,19.954,52.348,56.188
	c-5.509,4.416-8.715,11.093-8.715,18.154s3.205,13.74,8.715,18.157c49.915,40.024,78.542,99.618,78.542,163.497
	c0,63.882-28.627,123.479-78.542,163.505c-5.509,4.417-8.715,11.095-8.715,18.156c0,7.061,3.205,13.739,8.715,18.157
	C97.539,492.046,154.373,512,212.379,512c23.139,0,45.56-3.103,66.894-8.885c108.812-29.491,189.094-129.097,189.094-247.118
	C468.367,137.979,388.085,38.375,279.273,8.886z"/>
<path style="fill:#00D7DF;" d="M212.379,0C154.373,0,97.539,19.954,52.348,56.188c-5.509,4.416-8.715,11.093-8.715,18.154
	s3.205,13.74,8.715,18.157c49.915,40.024,78.542,99.618,78.542,163.497c0,63.882-28.627,123.479-78.542,163.505
	c-5.509,4.417-8.715,11.095-8.715,18.156c0,7.061,3.205,13.739,8.715,18.157C97.539,492.046,154.373,512,212.379,512
	c23.139,0,45.56-3.103,66.894-8.885V8.886C257.939,3.103,235.518,0,212.379,0z"/>
<g>
</g>
<g>
</g>
<g>
</g>
<g>
</g>
<g>
</g>
<g>
</g>
<g>
</g>
<g>
</g>
<g>
</g>
<g>
</g>
<g>
</g>
<g>
</g>
<g>
</g>
<g>
</g>
<g>
</g>
</svg>
