<?xml version="1.0" encoding="iso-8859-1"?>
<!-- Generator: Adobe Illustrator 19.0.0, SVG Export Plug-In . SVG Version: 6.00 Build 0)  -->
<svg version="1.1" id="Layer_1" xmlns="http://www.w3.org/2000/svg" xmlns:xlink="http://www.w3.org/1999/xlink" x="0px" y="0px"
	 viewBox="0 0 511.999 511.999" style="enable-background:new 0 0 511.999 511.999;" xml:space="preserve">
<path style="fill:#D0FCFF;" d="M384.008,74.558c7.191-4.158,11.618-11.836,11.618-20.145c0-8.307-4.428-15.985-11.618-20.143
	C345.251,11.851,300.981,0.002,255.984,0.002c-33.733,0-65.957,6.572-95.474,18.485v475.025
	c29.517,11.912,61.742,18.485,95.474,18.485c44.996,0,89.265-11.849,128.023-34.266c7.191-4.161,11.618-11.836,11.618-20.145
	c0-8.307-4.428-15.985-11.618-20.145c-64.606-37.375-104.738-106.898-104.738-181.446
	C279.269,181.453,319.402,111.931,384.008,74.558z"/>
<path style="fill:#BBFAFF;" d="M0,255.995C0,363.417,66.514,455.587,160.51,493.51V18.485C66.514,56.409,0,148.575,0,255.995z"/>
<path style="fill:#00E7F0;" d="M384.008,437.438c-64.606-37.372-104.738-106.895-104.738-181.443
	c0-74.542,40.133-144.064,104.738-181.437c7.191-4.158,11.618-11.836,11.618-20.145c0-8.307-4.428-15.985-11.618-20.143
	C345.251,11.851,300.981,0.002,255.984,0.002c-33.733,0-65.957,6.572-95.474,18.485C66.514,56.409,0,148.575,0,255.995
	C0,363.417,66.514,455.587,160.51,493.51c29.517,11.912,61.742,18.485,95.474,18.485c44.996,0,89.265-11.849,128.023-34.266
	c7.191-4.161,11.618-11.836,11.618-20.145C395.625,449.277,391.199,441.599,384.008,437.438z"/>
<path style="fill:#00D7DF;" d="M0,255.995C0,363.417,66.514,455.587,160.51,493.51V18.485C66.514,56.409,0,148.575,0,255.995z"/>
<path style="fill:#9BC9FF;" d="M481.529,218.189l-39.354,12.786v-41.378c0-12.853-10.42-23.272-23.272-23.272
	c-12.853,0-23.272,10.42-23.272,23.272v41.378l-39.352-12.786c-12.237-3.973-25.353,2.718-29.325,14.942
	c-3.973,12.224,2.717,25.351,14.941,29.323l39.352,12.787l-24.321,33.475c-7.554,10.398-5.249,24.951,5.149,32.505
	c4.132,3.004,8.916,4.447,13.659,4.447c7.197,0,14.295-3.329,18.848-9.596l24.321-33.475l24.323,33.475
	c4.554,6.27,11.65,9.596,18.846,9.596c4.743,0,9.529-1.446,13.661-4.447c10.397-7.554,12.704-22.109,5.146-32.505l-24.321-33.475
	l39.355-12.787c12.223-3.973,18.913-17.099,14.941-29.323C506.882,220.908,493.753,214.216,481.529,218.189z"/>
<path style="fill:#57A4FF;" d="M418.902,166.324c-12.853,0-23.272,10.42-23.272,23.272v41.378l-39.352-12.786
	c-12.237-3.973-25.353,2.718-29.325,14.942c-3.972,12.224,2.717,25.351,14.941,29.323l39.352,12.787l-24.321,33.475
	c-7.554,10.398-5.249,24.951,5.149,32.505c4.132,3.004,8.916,4.447,13.659,4.447c7.197,0,14.296-3.329,18.848-9.596l24.321-33.475
	l0,0V166.324L418.902,166.324z"/>
<g>
</g>
<g>
</g>
<g>
</g>
<g>
</g>
<g>
</g>
<g>
</g>
<g>
</g>
<g>
</g>
<g>
</g>
<g>
</g>
<g>
</g>
<g>
</g>
<g>
</g>
<g>
</g>
<g>
</g>
</svg>
