<?xml version="1.0" encoding="iso-8859-1"?>
<!-- Generator: Adobe Illustrator 19.0.0, SVG Export Plug-In . SVG Version: 6.00 Build 0)  -->
<svg version="1.1" id="Layer_1" xmlns="http://www.w3.org/2000/svg" xmlns:xlink="http://www.w3.org/1999/xlink" x="0px" y="0px"
	 viewBox="0 0 512 512" style="enable-background:new 0 0 512 512;" xml:space="preserve">
<path style="fill:#00E7F0;" d="M459.653,419.5c-49.915-40.024-78.542-99.618-78.542-163.497c0-63.882,28.627-123.479,78.542-163.505
	c5.509-4.417,8.713-11.095,8.713-18.156s-3.207-13.739-8.715-18.157C414.462,19.954,357.629,0,299.621,0
	c-23.138,0-45.56,3.103-66.894,8.886C123.915,38.375,43.633,137.982,43.633,256.003c0,118.018,80.282,217.622,189.094,247.111
	c21.333,5.782,43.756,8.885,66.894,8.885c58.008,0,114.842-19.954,160.031-56.188c5.509-4.416,8.715-11.093,8.715-18.154
	C468.367,430.597,465.161,423.917,459.653,419.5z"/>
<path style="fill:#00D7DF;" d="M43.633,256.003c0,118.018,80.282,217.622,189.094,247.111V8.886
	C123.915,38.375,43.633,137.982,43.633,256.003z"/>
<g>
</g>
<g>
</g>
<g>
</g>
<g>
</g>
<g>
</g>
<g>
</g>
<g>
</g>
<g>
</g>
<g>
</g>
<g>
</g>
<g>
</g>
<g>
</g>
<g>
</g>
<g>
</g>
<g>
</g>
</svg>
