<?xml version="1.0" encoding="iso-8859-1"?>
<!-- Generator: Adobe Illustrator 19.0.0, SVG Export Plug-In . SVG Version: 6.00 Build 0)  -->
<svg version="1.1" id="Layer_1" xmlns="http://www.w3.org/2000/svg" xmlns:xlink="http://www.w3.org/1999/xlink" x="0px" y="0px"
	 viewBox="0 0 512 512" style="enable-background:new 0 0 512 512;" xml:space="preserve">
<path style="fill:#A78966;" d="M475.636,124.621c-0.318-0.649-0.661-1.288-1.043-1.911c-32.883-53.822-84.111-93.5-144.249-111.725
	c-0.394-0.119-0.79-0.219-1.185-0.315c-7.875-1.942-16.24,0.351-22.021,6.13l-10.085,10.085L276.396,47.54L256,67.936
	l-31.971,31.969c-4.366,4.368-6.817,10.285-6.817,16.458s2.451,12.091,6.817,16.457l6.816,6.816h-98.966
	c-12.853,0-23.273,10.42-23.273,23.273V287.03c0,12.853,10.42,23.273,23.273,23.273H184.3l32.912,32.912v52.421
	c0,12.853,10.42,23.273,23.273,23.273H256h31.03c6.71,0,13.095-2.897,17.515-7.948l108.606-124.121
	c7.241-8.276,7.702-20.491,1.103-29.288l-21.442-28.59c1.348-0.877,2.611-1.898,3.766-3.052l52.077-52.077l17.635-17.635l4.9-4.901
	C478.272,144.215,479.969,133.475,475.636,124.621z"/>
<path style="fill:#9BC9FF;" d="M475.636,124.621c4.335,8.854,2.636,19.594-4.445,26.675l-4.9,4.901l-17.634,17.635l-52.077,52.077
	c-1.154,1.154-2.417,2.174-3.766,3.052l21.44,28.591c6.599,8.797,6.138,21.012-1.103,29.288L304.545,410.961
	c-4.42,5.052-10.805,7.948-17.515,7.948H256h-15.515c-12.853,0-23.273-10.42-23.273-23.273v-52.421L184.3,310.303h-52.421
	c-12.853,0-23.273-10.42-23.273-23.273V162.909c0-12.853,10.42-23.273,23.273-23.273h98.966l-6.817-6.816
	c-4.364-4.366-6.816-10.283-6.816-16.457s2.451-12.091,6.817-16.457L256,67.936l20.396-20.396l20.657-20.655L307.138,16.8
	c5.783-5.781,14.145-8.073,22.021-6.13C305.967,3.739,281.414,0,256,0C114.842,0,0,114.843,0,256.002S114.842,512,256,512
	s256-114.84,256-255.998C512,208.002,498.711,163.055,475.636,124.621z"/>
<path style="fill:#57A4FF;" d="M240.485,418.909c-12.853,0-23.273-10.42-23.273-23.273v-52.421L184.3,310.303h-52.421
	c-12.853,0-23.273-10.42-23.273-23.273V162.909c0-12.853,10.42-23.273,23.273-23.273h98.966l-6.816-6.816
	c-4.366-4.366-6.817-10.283-6.817-16.457s2.451-12.091,6.817-16.457L256,67.936V0C114.842,0,0,114.843,0,256.002
	S114.842,512,256,512v-93.091H240.485z"/>
<path style="fill:#5D5D5D;" d="M224.029,99.907c-4.366,4.366-6.817,10.283-6.817,16.457s2.451,12.091,6.817,16.457l6.816,6.816
	h-98.966c-12.853,0-23.273,10.42-23.273,23.273V287.03c0,12.853,10.42,23.273,23.273,23.273H184.3l32.912,32.912v52.421
	c0,12.853,10.42,23.273,23.273,23.273H256V67.936L224.029,99.907z"/>
<g>
</g>
<g>
</g>
<g>
</g>
<g>
</g>
<g>
</g>
<g>
</g>
<g>
</g>
<g>
</g>
<g>
</g>
<g>
</g>
<g>
</g>
<g>
</g>
<g>
</g>
<g>
</g>
<g>
</g>
</svg>
