<?xml version="1.0" encoding="iso-8859-1"?>
<!-- Generator: Adobe Illustrator 19.0.0, SVG Export Plug-In . SVG Version: 6.00 Build 0)  -->
<svg version="1.1" id="Layer_1" xmlns="http://www.w3.org/2000/svg" xmlns:xlink="http://www.w3.org/1999/xlink" x="0px" y="0px"
	 viewBox="0 0 512 512" style="enable-background:new 0 0 512 512;" xml:space="preserve">
<path style="fill:#E0E0E2;" d="M380.121,93.03h-2.586C357.432,42.207,310.557,6.568,256,0.832C250.888,0.293,245.715,0,240.485,0
	C161.468,0,96.776,62.498,93.243,140.659C40.603,148.14,0,193.508,0,248.182c0,59.885,48.719,108.606,108.606,108.606H256h124.121
	c72.718,0,131.879-59.161,131.879-131.879S452.839,93.03,380.121,93.03z"/>
<path style="fill:#9BC9FF;" d="M488.727,403.394c-12.853,0-23.273,10.42-23.273,23.273v31.03c0,12.853,10.42,23.273,23.273,23.273
	S512,470.55,512,457.697v-31.03C512,413.814,501.58,403.394,488.727,403.394z"/>
<path style="fill:#57A4FF;" d="M23.273,480.97c12.853,0,23.273-10.42,23.273-23.273v-31.03c0-12.853-10.42-23.273-23.273-23.273
	S0,413.814,0,426.667v31.03C0,470.55,10.42,480.97,23.273,480.97z"/>
<path style="fill:#9BC9FF;" d="M395.636,488.727v-31.03c0-12.853-10.42-23.273-23.273-23.273s-23.273,10.42-23.273,23.273v31.03
	c0,12.853,10.42,23.273,23.273,23.273S395.636,501.58,395.636,488.727z"/>
<path style="fill:#57A4FF;" d="M162.909,488.727v-31.03c0-12.853-10.42-23.273-23.273-23.273c-12.853,0-23.273,10.42-23.273,23.273
	v31.03c0,12.853,10.42,23.273,23.273,23.273C152.489,512,162.909,501.58,162.909,488.727z"/>
<path style="fill:#9BC9FF;" d="M279.273,457.697v-31.03c0-12.853-10.42-23.273-23.273-23.273c-12.853,0-23.273,10.42-23.273,23.273
	v31.03c0,12.853,10.42,23.273,23.273,23.273C268.853,480.97,279.273,470.55,279.273,457.697z"/>
<path style="fill:#C6C5CA;" d="M240.485,0C161.468,0,96.776,62.498,93.243,140.659C40.603,148.14,0,193.508,0,248.182
	c0,59.885,48.719,108.606,108.606,108.606H256V0.832C250.888,0.295,245.715,0,240.485,0z"/>
<path style="fill:#57A4FF;" d="M232.727,426.667v31.03c0,12.853,10.42,23.273,23.273,23.273v-77.576
	C243.147,403.394,232.727,413.814,232.727,426.667z"/>
<g>
</g>
<g>
</g>
<g>
</g>
<g>
</g>
<g>
</g>
<g>
</g>
<g>
</g>
<g>
</g>
<g>
</g>
<g>
</g>
<g>
</g>
<g>
</g>
<g>
</g>
<g>
</g>
<g>
</g>
</svg>
