<?xml version="1.0" encoding="iso-8859-1"?>
<!-- Generator: Adobe Illustrator 19.0.0, SVG Export Plug-In . SVG Version: 6.00 Build 0)  -->
<svg version="1.1" id="Layer_1" xmlns="http://www.w3.org/2000/svg" xmlns:xlink="http://www.w3.org/1999/xlink" x="0px" y="0px"
	 viewBox="0 0 512 512" style="enable-background:new 0 0 512 512;" xml:space="preserve">
<path style="fill:#E0E0E2;" d="M465.618,175.343c-4.404-5.727-9.283-11.067-14.622-15.919c-5.252-4.772-10.94-9.066-16.971-12.867
	c-18.628-11.745-40.655-18.572-64.26-18.572h-0.626h-1.745c-0.228-0.576-0.476-1.139-0.711-1.711
	c-8.416-20.446-21.584-38.135-37.999-51.908c-5.456-4.578-11.267-8.724-17.385-12.392c-6.101-3.659-12.496-6.852-19.145-9.521
	c-11.419-4.585-23.564-7.651-36.156-8.975c-4.686-0.493-9.427-0.764-14.221-0.764c-72.424,0-131.719,57.285-134.957,128.923
	c-48.246,6.86-85.462,48.443-85.462,98.553c0,54.889,44.654,99.544,99.544,99.544H256h113.765
	c66.651,0,120.875-54.225,120.875-120.875C490.641,221.219,481.292,195.73,465.618,175.343z"/>
<path style="fill:#00E7F0;" d="M383.986,0c-23.269,0-45.387,7.365-63.959,21.3c-11.24,8.434-20.732,19.11-27.872,31.156
	c6.65,2.669,13.045,5.862,19.145,9.521c6.118,3.669,11.928,7.816,17.385,12.392c16.415,13.771,29.583,31.46,37.999,51.908
	l2.457,1.711h0.626c23.605,0,45.633,6.826,64.26,18.571c6.03,3.801,11.718,8.093,16.971,12.867
	c5.338,4.854,10.219,10.192,14.622,15.919c16.092-19.024,25.021-43.097,25.021-68.689C490.641,47.845,442.795,0,383.986,0z"/>
<path style="fill:#9BC9FF;" d="M469.31,412.456c-11.78,0-21.331,9.551-21.331,21.331v28.441c0,11.78,9.551,21.331,21.331,21.331
	s21.331-9.551,21.331-21.331v-28.441C490.641,422.006,481.09,412.456,469.31,412.456z"/>
<path style="fill:#57A4FF;" d="M64.021,433.786c0-11.78-9.551-21.331-21.331-21.331s-21.331,9.551-21.331,21.331v28.441
	c0,11.78,9.551,21.331,21.331,21.331s21.331-9.551,21.331-21.331V433.786z"/>
<path style="fill:#9BC9FF;" d="M383.986,490.669v-28.441c0-11.78-9.551-21.331-21.331-21.331s-21.331,9.551-21.331,21.331v28.441
	c0,11.78,9.551,21.331,21.331,21.331S383.986,502.449,383.986,490.669z"/>
<path style="fill:#57A4FF;" d="M149.345,512c11.78,0,21.331-9.551,21.331-21.331v-28.441c0-11.78-9.551-21.331-21.331-21.331
	s-21.331,9.551-21.331,21.331v28.441C128.014,502.449,137.565,512,149.345,512z"/>
<path style="fill:#8CB7E8;" d="M277.331,462.228v-28.441c0-11.78-9.551-21.331-21.331-21.331c-11.78,0-21.331,9.551-21.331,21.331
	v28.441c0,11.78,9.551,21.331,21.331,21.331C267.78,483.559,277.331,474.008,277.331,462.228z"/>
<path style="fill:#C6C5CA;" d="M241.779,42.719c-72.424,0-131.719,57.285-134.957,128.923c-48.248,6.859-85.463,48.44-85.463,98.552
	c0,54.889,44.654,99.544,99.544,99.544H256V43.481C251.314,42.989,246.573,42.719,241.779,42.719z"/>
<path style="fill:#57A4FF;" d="M234.669,433.786v28.441c0,11.78,9.551,21.331,21.331,21.331v-71.103
	C244.22,412.456,234.669,422.006,234.669,433.786z"/>
<path style="fill:#00D7DF;" d="M383.986,0c-23.269,0-45.387,7.365-63.959,21.3c-11.24,8.434-20.732,19.11-27.872,31.156
	c6.65,2.669,13.045,5.862,19.145,9.521c6.118,3.669,11.928,7.816,17.385,12.392c16.415,13.773,29.583,31.462,37.999,51.908
	l2.457,1.709h0.626c7.383,0,14.613,0.668,21.632,1.945V0.286C388.946,0.117,386.48,0,383.986,0z"/>
<g>
</g>
<g>
</g>
<g>
</g>
<g>
</g>
<g>
</g>
<g>
</g>
<g>
</g>
<g>
</g>
<g>
</g>
<g>
</g>
<g>
</g>
<g>
</g>
<g>
</g>
<g>
</g>
<g>
</g>
</svg>
