<?xml version="1.0" encoding="iso-8859-1"?>
<!-- Generator: Adobe Illustrator 19.0.0, SVG Export Plug-In . SVG Version: 6.00 Build 0)  -->
<svg version="1.1" id="Layer_1" xmlns="http://www.w3.org/2000/svg" xmlns:xlink="http://www.w3.org/1999/xlink" x="0px" y="0px"
	 viewBox="0 0 512 512" style="enable-background:new 0 0 512 512;" xml:space="preserve">
<path style="fill:#313133;" d="M256.006,124.121c-0.002,0-0.005,0-0.006,0c-72.715,0-131.873,59.161-131.873,131.88
	c0,72.718,59.158,131.877,131.873,131.877c0.002,0,0.005,0,0.006,0c72.718-0.003,131.879-59.162,131.879-131.877
	C387.885,183.285,328.724,124.124,256.006,124.121z"/>
<g>
	<path style="fill:#A9A8AE;" d="M256,77.576c12.853,0,23.273-10.42,23.273-23.273v-31.03C279.273,10.42,268.853,0,256,0
		c-12.853,0-23.273,10.42-23.273,23.273v31.03C232.727,67.156,243.147,77.576,256,77.576z"/>
	<path style="fill:#A9A8AE;" d="M279.273,488.727v-31.03c0-12.853-10.42-23.273-23.273-23.273c-12.853,0-23.273,10.42-23.273,23.273
		v31.03C232.727,501.58,243.147,512,256,512C268.853,512,279.273,501.58,279.273,488.727z"/>
	<path style="fill:#A9A8AE;" d="M488.727,232.727h-31.03c-12.853,0-23.273,10.42-23.273,23.273c0,12.853,10.42,23.273,23.273,23.273
		h31.03C501.58,279.273,512,268.853,512,256C512,243.147,501.58,232.727,488.727,232.727z"/>
	<path style="fill:#A9A8AE;" d="M23.273,279.273h31.029c12.853,0,23.273-10.42,23.273-23.273c0-12.853-10.42-23.273-23.273-23.273
		H23.273C10.42,232.727,0,243.147,0,256C0,268.853,10.42,279.273,23.273,279.273z"/>
	<path style="fill:#A9A8AE;" d="M398.621,136.651c5.956,0,11.913-2.273,16.458-6.817l21.942-21.943
		c9.087-9.089,9.086-23.825-0.002-32.912c-9.09-9.089-23.822-9.087-32.914,0l-21.943,21.945c-9.087,9.089-9.086,23.825,0.002,32.912
		C386.71,134.38,392.665,136.651,398.621,136.651z"/>
	<path style="fill:#A9A8AE;" d="M107.892,437.018l21.943-21.942c9.087-9.087,9.089-23.824,0.002-32.912
		c-9.089-9.089-23.824-9.089-32.914-0.002L74.98,404.105c-9.087,9.087-9.089,23.824-0.002,32.912
		c4.546,4.544,10.501,6.816,16.457,6.816C97.39,443.834,103.348,441.563,107.892,437.018z"/>
	<path style="fill:#A9A8AE;" d="M415.077,382.165c-9.087-9.089-23.824-9.089-32.912,0s-9.089,23.824,0,32.912l21.942,21.942
		c4.544,4.544,10.501,6.816,16.455,6.816c5.956,0,11.913-2.271,16.457-6.816c9.089-9.089,9.089-23.824,0-32.912L415.077,382.165z"/>
	<path style="fill:#A9A8AE;" d="M96.922,129.835c4.544,4.544,10.501,6.817,16.455,6.817c5.955,0,11.913-2.271,16.455-6.817
		c9.089-9.089,9.089-23.824,0-32.912l-21.94-21.942c-9.087-9.089-23.824-9.089-32.912,0s-9.089,23.824,0,32.912L96.922,129.835z"/>
</g>
<path style="fill:#222224;" d="M256,387.879c0.002,0,0.005,0,0.006,0V124.121c-0.002,0-0.005,0-0.006,0
	c-72.715,0-131.873,59.161-131.873,131.88C124.127,328.719,183.285,387.879,256,387.879z"/>
<g>
</g>
<g>
</g>
<g>
</g>
<g>
</g>
<g>
</g>
<g>
</g>
<g>
</g>
<g>
</g>
<g>
</g>
<g>
</g>
<g>
</g>
<g>
</g>
<g>
</g>
<g>
</g>
<g>
</g>
</svg>
