<?xml version="1.0" encoding="iso-8859-1"?>
<!-- Generator: Adobe Illustrator 19.0.0, SVG Export Plug-In . SVG Version: 6.00 Build 0)  -->
<svg version="1.1" id="Layer_1" xmlns="http://www.w3.org/2000/svg" xmlns:xlink="http://www.w3.org/1999/xlink" x="0px" y="0px"
	 viewBox="0 0 512 512" style="enable-background:new 0 0 512 512;" xml:space="preserve">
<path style="fill:#9BC9FF;" d="M372.364,274.178V116.364C372.364,52.201,320.163,0,256,0S139.636,52.201,139.636,116.364v157.815
	c-20.072,25.803-31.03,57.575-31.03,90.427C108.606,445.879,174.727,512,256,512s147.394-66.121,147.394-147.394
	C403.394,331.75,392.436,299.979,372.364,274.178z M256,465.455c-55.608,0-100.848-45.241-100.848-100.848
	c0-24.554,8.954-48.227,25.211-66.661c3.75-4.251,5.82-9.726,5.82-15.394V116.364c0-38.498,31.32-69.818,69.818-69.818
	s69.818,31.32,69.818,69.818v166.187c0,5.669,2.07,11.145,5.82,15.396c16.257,18.429,25.211,42.102,25.211,66.659
	C356.848,420.214,311.608,465.455,256,465.455z"/>
<path style="fill:#BDFDFF;" d="M331.638,297.947c-3.75-4.251-5.82-9.726-5.82-15.396V116.364c0-38.498-31.32-69.818-69.818-69.818
	s-69.818,31.32-69.818,69.818v166.187c0,5.669-2.07,11.143-5.82,15.394c-16.257,18.434-25.211,42.107-25.211,66.661
	c0,55.608,45.241,100.848,100.848,100.848s100.848-45.241,100.848-100.848C356.848,340.049,347.895,316.376,331.638,297.947z
	 M256,418.909c-29.943,0-54.303-24.36-54.303-54.303c0-21.619,12.702-40.321,31.03-49.053v-199.19
	c0-12.853,10.42-23.273,23.273-23.273c12.853,0,23.273,10.42,23.273,23.273v199.19c18.328,8.732,31.03,27.435,31.03,49.053
	C310.303,394.549,285.943,418.909,256,418.909z"/>
<path style="fill:#FF6243;" d="M279.273,315.553v-199.19c0-12.853-10.42-23.273-23.273-23.273c-12.853,0-23.273,10.42-23.273,23.273
	v199.19c-18.328,8.732-31.03,27.435-31.03,49.053c0,29.943,24.36,54.303,54.303,54.303c29.943,0,54.303-24.36,54.303-54.303
	C310.303,342.987,297.601,324.285,279.273,315.553z"/>
<path style="fill:#9BC9FF;" d="M186.182,116.364v166.187c0,5.669-2.07,11.143-5.82,15.394
	c-16.257,18.432-25.211,42.107-25.211,66.661c0,55.608,45.241,100.848,100.848,100.848v-46.545
	c-29.943,0-54.303-24.36-54.303-54.303c0-21.619,12.701-40.321,31.03-49.053v-199.19c0-12.853,10.42-23.273,23.273-23.273V46.545
	C217.501,46.545,186.182,77.866,186.182,116.364z"/>
<path style="fill:#FF0C38;" d="M232.727,116.364v199.19c-18.33,8.732-31.03,27.435-31.03,49.053
	c0,29.943,24.36,54.303,54.303,54.303V93.091C243.147,93.091,232.727,103.511,232.727,116.364z"/>
<path style="fill:#57A4FF;" d="M155.152,364.606c0-24.554,8.954-48.229,25.211-66.661c3.75-4.251,5.82-9.726,5.82-15.394V116.364
	c0-38.498,31.319-69.818,69.818-69.818V0c-64.163,0-116.364,52.201-116.364,116.364v157.815
	c-20.072,25.803-31.03,57.575-31.03,90.427C108.606,445.879,174.727,512,256,512v-46.545
	C200.392,465.455,155.152,420.214,155.152,364.606z"/>
<g>
</g>
<g>
</g>
<g>
</g>
<g>
</g>
<g>
</g>
<g>
</g>
<g>
</g>
<g>
</g>
<g>
</g>
<g>
</g>
<g>
</g>
<g>
</g>
<g>
</g>
<g>
</g>
<g>
</g>
</svg>
