<?xml version="1.0" encoding="iso-8859-1"?>
<!-- Generator: Adobe Illustrator 19.0.0, SVG Export Plug-In . SVG Version: 6.00 Build 0)  -->
<svg version="1.1" id="Layer_1" xmlns="http://www.w3.org/2000/svg" xmlns:xlink="http://www.w3.org/1999/xlink" x="0px" y="0px"
	 viewBox="0 0 512 512" style="enable-background:new 0 0 512 512;" xml:space="preserve">
<path style="fill:#9BC9FF;" d="M372.364,274.178V116.364C372.364,52.201,320.163,0,256,0c-64.164,0-116.364,52.201-116.364,116.364
	v157.814c-20.072,25.803-31.03,57.574-31.03,90.428C108.606,445.879,174.727,512,256,512s147.394-66.121,147.394-147.394
	C403.394,331.751,392.434,299.981,372.364,274.178z M256,465.455c-55.608,0-100.848-45.241-100.848-100.848
	c0-24.556,8.954-48.229,25.211-66.659c3.75-4.251,5.82-9.726,5.82-15.396V116.364c0-38.498,31.319-69.818,69.818-69.818
	c38.498,0,69.818,31.32,69.818,69.818v166.187c0,5.669,2.07,11.145,5.82,15.396c16.257,18.43,25.211,42.103,25.211,66.659
	C356.848,420.214,311.608,465.455,256,465.455z"/>
<path style="fill:#BDFDFF;" d="M331.638,297.947c-3.75-4.251-5.82-9.726-5.82-15.396V116.364c0-38.498-31.32-69.818-69.818-69.818
	c-38.499,0-69.818,31.32-69.818,69.818v166.187c0,5.669-2.07,11.145-5.82,15.396c-16.257,18.43-25.211,42.103-25.211,66.659
	c0,55.608,45.241,100.848,100.848,100.848s100.848-45.241,100.848-100.848C356.848,340.05,347.895,316.377,331.638,297.947z
	 M256,418.909c-29.943,0-54.303-24.36-54.303-54.303c0-21.619,12.701-40.321,31.03-49.053V209.455
	c0-12.853,10.42-23.273,23.273-23.273c12.853,0,23.273,10.42,23.273,23.273v106.099c18.328,8.732,31.03,27.435,31.03,49.053
	C310.303,394.549,285.943,418.909,256,418.909z"/>
<path style="fill:#FF6243;" d="M279.273,315.553V209.455c0-12.853-10.42-23.273-23.273-23.273c-12.853,0-23.273,10.42-23.273,23.273
	v106.099c-18.33,8.732-31.03,27.435-31.03,49.053c0,29.943,24.36,54.303,54.303,54.303c29.943,0,54.303-24.36,54.303-54.303
	C310.303,342.987,297.601,324.285,279.273,315.553z"/>
<path style="fill:#9BC9FF;" d="M201.697,364.606c0-21.619,12.701-40.321,31.03-49.053V209.455c0-12.853,10.42-23.273,23.273-23.273
	V46.545c-38.499,0-69.818,31.32-69.818,69.818v166.187c0,5.669-2.07,11.145-5.82,15.396c-16.258,18.43-25.211,42.103-25.211,66.659
	c0,55.608,45.241,100.848,100.848,100.848v-46.545C226.057,418.909,201.697,394.549,201.697,364.606z"/>
<path style="fill:#FF0C38;" d="M232.727,209.455v106.099c-18.33,8.732-31.03,27.435-31.03,49.053
	c0,29.943,24.36,54.303,54.303,54.303V186.182C243.147,186.182,232.727,196.602,232.727,209.455z"/>
<path style="fill:#8CB7E8;" d="M256,512v-46.545c-55.608,0-100.848-45.241-100.848-100.848c0-24.556,8.952-48.229,25.211-66.659
	c3.75-4.251,5.82-9.726,5.82-15.396V116.364c0-38.498,31.319-69.818,69.818-69.818V0c-64.164,0-116.364,52.201-116.364,116.364
	v157.814c-20.072,25.803-31.03,57.574-31.03,90.428C108.606,445.879,174.727,512,256,512z"/>
<path style="fill:#57A4FF;" d="M256,512v-46.545c-55.608,0-100.848-45.241-100.848-100.848c0-24.556,8.952-48.229,25.211-66.659
	c3.75-4.251,5.82-9.726,5.82-15.396V116.364c0-38.498,31.319-69.818,69.818-69.818V0c-64.164,0-116.364,52.201-116.364,116.364
	v157.814c-20.072,25.803-31.03,57.574-31.03,90.428C108.606,445.879,174.727,512,256,512z"/>
<g>
</g>
<g>
</g>
<g>
</g>
<g>
</g>
<g>
</g>
<g>
</g>
<g>
</g>
<g>
</g>
<g>
</g>
<g>
</g>
<g>
</g>
<g>
</g>
<g>
</g>
<g>
</g>
<g>
</g>
</svg>
